
<svg xmlns="http://www.w3.org/2000/svg" xmlns:xlink="http://www.w3.org/1999/xlink" version="1.1" id="Capa_1" x="0px" y="0px" viewBox="0 0 512 512" style="enable-background:new 0 0 512 512;" xml:space="preserve" ><g><g>
	<g>
		<g>
			<g>
				<g>
					<g>
						<g>
							<g>
								<g>
									<g>
										<circle style="fill:#3F6199" cx="256" cy="256" r="256" data-original="#3F6199" />
									</g>
								</g>
							</g>
						</g>
					</g>
				</g>
			</g>
		</g>
	</g>
	<path style="fill:#2B4160" d="M512,256c0-0.759-0.022-1.513-0.029-2.271l-61.919-61.919l-14.469,12.166l-82.931-82.931   L327.94,241.726L256,169.786l-10.14,37.771l-86.512-86.512L99.151,306.312l96.554,96.554l-24.615,28.245l80.838,80.837   C253.284,511.97,254.639,512,256,512C397.385,512,512,397.385,512,256z" data-original="#2B4160" />
	<g>
		<g>
			<polygon style="fill:#FFFFFF" points="159.348,121.045 189.446,182.031 256.748,191.811 208.048,239.281 219.544,306.311      159.348,274.664 99.151,306.311 110.648,239.281 61.947,191.811 129.249,182.031    " data-original="#FFFFFF" />
		</g>
		<g>
			<polygon style="fill:#E9EDF5" points="352.652,121.045 382.751,182.031 450.052,191.811 401.352,239.281 412.849,306.311      352.652,274.664 292.456,306.311 303.952,239.281 255.252,191.811 322.554,182.031    " data-original="#E9EDF5" class=""/>
		</g>
	</g>
	<g>
		<polygon style="fill:#FFC200" points="256,169.786 298.455,255.809 393.387,269.603 324.693,336.563 340.91,431.111 256,386.471     171.09,431.111 187.307,336.563 118.613,269.603 213.545,255.809   " data-original="#FFC200" class="" data-old_color="#FFC200"/>
	</g>
	<g>
		<polygon style="fill:#FF8B00" points="256,386.471 340.91,431.111 324.693,336.563 393.387,269.604 298.455,255.809 256,169.786       " data-original="#FF8B00" class="active-path" data-old_color="#FF8B00"/>
	</g>
</g></g> </svg>
